C:\Users\u0088756\Documents\documenten\software\SoftwareProjects\DC_TrackingSimulation\Data\Patient20\InputData\GRF_data.mot
nRows=17
nColumns=19

name C:\Users\u0088756\Documents\documenten\software\SoftwareProjects\DC_TrackingSimulation\Data\Patient20\InputData\GRF_data.mot
datacolumns 19
datarows 17
range 0.5720000000 0.5880000000
endheader
time	ground_force_vx	ground_force_vy	ground_force_vz	ground_force_px	ground_force_py	ground_force_pz	1_ground_force_vx	1_ground_force_vy	1_ground_force_vz	1_ground_force_px	1_ground_force_py	1_ground_force_pz	ground_torque_x	ground_torque_y	ground_torque_z	1_ground_torque_x	1_ground_torque_y	1_ground_torque_z
        0.5720000000	       92.8699847767	      628.5518249637	       34.1635482934	        0.7389982881	        0.0003181560	       -0.0747187715	       -1.6917740403	       59.1652960857	       -2.7262545250	        1.0644315615	        0.0003181560	        0.0551098361	        0.0000000000	        5.2999180619	        0.0000000000	        0.0000000000	       -3.1772340537	        0.0000000000	
        0.5730000000	       93.5814365116	      627.7405397703	       34.0725614879	        0.7392658117	        0.0003164688	       -0.0747026492	       -2.0988073456	       62.3713173824	       -2.7058817648	        1.0704824685	        0.0003164688	        0.0559238685	        0.0000000000	        5.2964069467	        0.0000000000	        0.0000000000	       -3.1791271582	        0.0000000000	
        0.5740000000	       94.2850960707	      626.8618941122	       33.9778966711	        0.7395383506	        0.0003147815	       -0.0746860288	       -2.5195583832	       65.6483740902	       -2.6889124889	        1.0762137867	        0.0003147815	        0.0566765814	        0.0000000000	        5.2927182486	        0.0000000000	        0.0000000000	       -3.1790018126	        0.0000000000	
        0.5750000000	       94.9803348669	      625.9147170874	       33.8795645087	        0.7398160691	        0.0003130943	       -0.0746689025	       -2.9541263048	       68.9959438609	       -2.6755423949	        1.0816565740	        0.0003130943	        0.0573745237	        0.0000000000	        5.2888460507	        0.0000000000	        0.0000000000	       -3.1770275205	        0.0000000000	
        0.5760000000	       95.6665227847	      624.8978688201	       33.7775769652	        0.7400994282	        0.0003115780	       -0.0746513562	       -3.4026012033	       72.4134480666	       -2.6659697710	        1.0868381351	        0.0003115780	        0.0580232920	        0.0000000000	        5.2847836187	        0.0000000000	        0.0000000000	       -3.1733549504	        0.0000000000	
        0.5770000000	       96.3430288214	      623.8102420219	       33.6719472874	        0.7403882739	        0.0003100617	       -0.0746332894	       -3.8650638552	       75.9002521166	       -2.6603953106	        1.0917817476	        0.0003100617	        0.0586279451	        0.0000000000	        5.2805233937	        0.0000000000	        0.0000000000	       -3.1681190568	        0.0000000000	
        0.5780000000	       97.0092217359	      622.6507635368	       33.5626899897	        0.7406827484	        0.0003085454	       -0.0746146951	       -4.3415854674	       79.4556658555	       -2.6590219188	        1.0965080936	        0.0003085454	        0.0591928358	        0.0000000000	        5.2760569868	        0.0000000000	        0.0000000000	       -3.1614416255	        0.0000000000	
        0.5790000000	       97.6644707046	      621.4183958673	       33.4498208385	        0.7409829862	        0.0003070291	       -0.0745955665	       -4.8322274301	       83.0789440433	       -2.6620545098	        1.1010353840	        0.0003070291	        0.0597217945	        0.0000000000	        5.2713751768	        0.0000000000	        0.0000000000	       -3.1534333615	        0.0000000000	
        0.5800000000	       98.3081459827	      620.1121386811	       33.3333568367	        0.7412891136	        0.0003055128	       -0.0745758970	       -5.3370410754	       86.7692869153	       -2.6696997960	        1.1053797137	        0.0003055128	        0.0602182050	        0.0000000000	        5.2664679106	        0.0000000000	        0.0000000000	       -3.1441956131	        0.0000000000	
        0.5810000000	       98.9396195717	      618.7310302947	       33.2133162099	        0.7416016456	        0.0003043385	       -0.0745558197	       -5.8560674432	       90.5258408228	       -2.6821660680	        1.1095557529	        0.0003043385	        0.0606849273	        0.0000000000	        5.2613243051	        0.0000000000	        0.0000000000	       -3.1338217990	        0.0000000000	
        0.5820000000	       99.5582658906	      617.2741491322	       33.0897183908	        0.7419202960	        0.0003031641	       -0.0745351889	       -6.3893370539	       94.3476989539	       -2.6996629667	        1.1135758058	        0.0003031641	        0.0611247694	        0.0000000000	        5.2559326532	        0.0000000000	        0.0000000000	       -3.1223985984	        0.0000000000	
        0.5830000000	      100.1634624523	      615.7406151584	       32.9625840054	        0.7422451670	        0.0003019898	       -0.0745139985	       -6.9368696893	       98.2339021314	       -2.7224012465	        1.1174512072	        0.0003019898	        0.0615401121	        0.0000000000	        5.2502804312	        0.0000000000	        0.0000000000	       -3.1100069437	        0.0000000000	
        0.5840000000	      100.7545905417	      614.1295912815	       32.8319348587	        0.7425763524	        0.0003008155	       -0.0744922428	       -7.4986741818	      102.1834396896	       -2.7505925308	        1.1211921027	        0.0003008155	        0.0619330863	        0.0000000000	        5.2443543099	        0.0000000000	        0.0000000000	       -3.0967228534	        0.0000000000	
        0.5850000000	      101.3310358978	      612.4402847264	       32.6977939208	        0.7429139377	        0.0002996411	       -0.0744699164	       -8.0747482128	      106.1952504260	       -2.7844490583	        1.1248075977	        0.0002996411	        0.0623056044	        0.0000000000	        5.2381401673	        0.0000000000	        0.0000000000	       -3.0826181312	        0.0000000000	
        0.5860000000	      101.8921893968	      610.6719483739	       32.5601853129	        0.7432584463	        0.0002989794	       -0.0744471034	       -8.6650781219	      110.2682236279	       -2.8241834222	        1.1283063323	        0.0002989794	        0.0626592978	        0.0000000000	        5.2316231053	        0.0000000000	        0.0000000000	       -3.0677609545	        0.0000000000	
        0.5870000000	      102.4374477358	      608.8238820650	       32.4191342942	        0.7436095003	        0.0002983176	       -0.0744237093	       -9.2696387258	      114.4012001714	       -2.8700083008	        1.1316952502	        0.0002983176	        0.0629958088	        0.0000000000	        5.2247874672	        0.0000000000	        0.0000000000	       -3.0522163686	        0.0000000000	
        0.5880000000	      102.9662141172	      606.8954338679	       32.2746672479	        0.7439671596	        0.0002976558	       -0.0743997292	       -9.8883931504	      118.5929736908	       -2.9221361798	        1.1349810328	        0.0002976558	        0.0633165417	        0.0000000000	        5.2176168596	        0.0000000000	        0.0000000000	       -3.0360467034	        0.0000000000	
